<?xml version="1.0" encoding="UTF-8"?>
<svg xmlns="http://www.w3.org/2000/svg" width="113.352" height="34.016" viewBox="0 0 113.352 34.016">
  <g transform="translate(-1318.11 -23.652)">
    <path d="M1331.45,57.013a11.269,11.269,0,0,1-3.42.578l-.263,0a9.332,9.332,0,0,1-6.8-2.52,9.849,9.849,0,0,1-2.834-6.292c-.015-.2-.021-.4-.021-.6.008-.413.033-.817.062-1.183.028-.332.059-.634.088-.883a.8.8,0,0,1,.8-.709l3.716.005a.8.8,0,0,1,.8.734l.057.662.048.578a6.5,6.5,0,0,0,.711,2.963c1.035,2,4.854,2.442,6.261.6a5.181,5.181,0,0,0-.755-7.114c-1.641-1.341-3.907-1.9-5.745-2.94a10.706,10.706,0,0,1-4.532-4.444,9.644,9.644,0,0,1-.317-7.688A7.816,7.816,0,0,1,1324.76,24a10.027,10.027,0,0,1,8.689,1.7,10.83,10.83,0,0,1,3.618,7.4,1.992,1.992,0,0,1,.009.333l.049.435a.633.633,0,0,1-.629.7l-4.191-.006a.42.42,0,0,1-.417-.409c-.126-4.64-3.291-4.843-4.135-4.994a2.734,2.734,0,0,0-2.811.872,3.184,3.184,0,0,0-.688,3.383c.63,1.647,2.286,2.54,3.82,3.2.271.115.539.227.809.34a16.132,16.132,0,0,1,5.133,2.951c5,4.69,4.554,14.641-2.566,17.109" fill="#1a1818"></path>
    <path d="M1361.22,24.026l2.516,0a.5.5,0,0,1,.5.506l-.043,32.291a.5.5,0,0,1-.506.5h-.912l-.023.008-2.66,0-.071-.008h-.9a.506.506,0,0,1-.5-.505l0-1.338c0-.017-.005-.032-.007-.05-.08-.784-.006-8.363.022-11.055l.008-6.354c-.855,2.4-1.749,4.91-2.364,6.629-.4,1.121-.682,1.907-.754,2.1-.015.037-.034.108-.053.176a4.409,4.409,0,0,1-.332.8c-.155.3-.215.568-.554.718a4,4,0,0,1-1.478.21,10.4,10.4,0,0,1-1.9-.192,1.057,1.057,0,0,1-.6-.232,1.368,1.368,0,0,1-.245-.711c-.078-.33-.19-.655-.29-.979-.134-.435-.26-.869-.383-1.3l-.534-1.8c-.112-.359-.226-.715-.352-1.068-.429-1.211-1.143-3.111-1.85-4.968-.083,5.8-.175,19.39-.175,19.39a.5.5,0,0,1-.505.5h-.664l-.026.008-3.158,0-.031-.009h-.683a.506.506,0,0,1-.505-.506l.044-32.291a.5.5,0,0,1,.505-.5l1.444,0a1.03,1.03,0,0,1,.136-.006h.029c.318.007.648,0,1,0,.366,0,.738,0,1.109,0l1.351,0v.1c.027.005.051.013.079.021l-.079-.119h.7a.5.5,0,0,1,.473.333l1.165,3.239c.095.257.193.524.294.8q.579,1.581,1.151,3.161c.752,2.07,1.656,5.877,2.431,7.977.664-1.945,1.483-5.656,2.04-7.308.288-.856.418-2,.615-2.586.149-.443.3-.893.445-1.346.11-.341.225-.687.34-1.034l.022-.065c.132-.4.267-.792.408-1.184l.528-1.537a.5.5,0,0,1,.413-.335l.807-.105-.062.092c.02-.005.04-.012.062-.016v-.076l1.295,0c.4-.007.816-.006,1.255,0" fill="#1a1818"></path>
    <path d="M1381.578,42.089c-.006-.589-.011-1.157-.013-1.681v-.016l0-.016c.013-.612.02-1.114.021-1.577a29.45,29.45,0,0,0-.509-6.531,3.974,3.974,0,0,0-1.827-2.752,3.269,3.269,0,0,0-1.558-.372,3.485,3.485,0,0,0-1.9.533c-1.139.755-1.734,2.373-1.817,4.948-.06,1.874-.059,3.717-.052,5.761v.031c-.006.276.005.775.012,1.218.008.369.016.717.015.964a29.449,29.449,0,0,0,.509,6.53,3.968,3.968,0,0,0,1.828,2.752,3.563,3.563,0,0,0,3.459-.16c1.139-.756,1.733-2.374,1.817-4.947.046-1.389.029-3.14.015-4.685m5.512-1.7c.008.482,0,1.208,0,1.849,0,.38-.006.74-.006,1.015,0,.873,0,1.9-.022,2.936-.067,3.106-.425,6.1-2.466,8.642a8.2,8.2,0,0,1-5.944,2.816c-.229.014-.457.021-.687.021a9.344,9.344,0,0,1-6.446-2.4,9.754,9.754,0,0,1-2.64-6.684c-.021-.841-.076-1.705-.128-2.543,0-.016,0-.032,0-.048-.227-3.583-.218-7.193-.141-10.782.068-3.106.3-6.1,2.337-8.642a8.2,8.2,0,0,1,5.944-2.815,9.5,9.5,0,0,1,7.135,2.382,9.532,9.532,0,0,1,2.768,6.557c.019.839.074,1.705.127,2.541.063.986.127,2.134.14,3.154q.012.9.029,1.792Z" fill="#1a1818"></path>
    <path d="M1404.241,35.087c-.668,1.084-1.277,2.077-1.732,2.821.568,1.251,1.876,4.137,2.515,5.561q.631,1.413,1.253,2.8c1.221,2.732,2.374,5.312,3.616,8.022a6.255,6.255,0,0,1,.34.853.4.4,0,0,0,.014.041l.535,1.355a.62.62,0,0,1-.577.847l-1.171,0a.548.548,0,0,0-.07,0,1.467,1.467,0,0,1-.2.007q-.183-.009-.366-.012l-1.353,0-.186,0c-.35.005-.7.009-1.062.009a1.286,1.286,0,0,1-.189-.013h-.452a.62.62,0,0,1-.569-.378l-3.263-7.73c-1.7-3.965-2.442-5.614-2.762-6.291-.539.786-1.053,1.547-1.314,1.936-.112,1.756-.177,11.561-.177,11.646v.192a.62.62,0,0,1-.622.617h-1a.36.36,0,0,0-.046,0l-.1.005h-.045c-.6,0-1.167,0-1.736-.01l-1.534,0a.619.619,0,0,1-.617-.62l.042-31.956a.727.727,0,0,1,.727-.726l1.078,0c.189-.009.367,0,.526,0l.107,0,2.409,0a.727.727,0,0,1,.725.727s.108,9.036.1,9.466c0,.475,0,.909,0,1.349.158-.237.347-.508.56-.807l7.233-10.411a.725.725,0,0,1,.6-.311l4.372.005a.726.726,0,0,1,.613,1.113l-.829,1.317a2.4,2.4,0,0,1-.285.454Z" fill="#1a1818"></path>
    <path d="M1431.46,54.632l0,1.818a.971.971,0,0,1-.973.968l-2.894,0c-2.3.007-5.87.013-8.526.01-1.519,0-2.738-.007-3.251-.018-.053,0-.106-.005-.157-.008l-.964,0a.97.97,0,0,1-.969-.971l.041-31.36a.971.971,0,0,1,.972-.969h1.055c.046,0,.094-.006.141-.006h0l2.884.01,10.666.015a.969.969,0,0,1,.969.971l0,1.421c.007.188,0,.369,0,.54l0,1.673a.97.97,0,0,1-.971.97l-10.08-.013c-.007.206-.01.5,0,.931.034,1.189.01,2.385-.013,3.541-.011.6-.022,1.226-.027,1.835,0,.3,0,.643.027.981.212.007.431.008.661.007.153,0,.308,0,.461,0l.621.008,5.936.008a.97.97,0,0,1,.969.971l0,1.471a7.627,7.627,0,0,1,0,1.015l0,1.148a.971.971,0,0,1-.972.97l-7.744-.01-.012,9.086.037.039c.373.025.764.041,1.167.047,1.283.019,2.595.019,3.861.017,1.193,0,2.425,0,3.643.015l.209,0c.408,0,.83.008,1.267.047.076.008.151.018.223.031h.784a.97.97,0,0,1,.969.973l0,1.764Z" fill="#1a1818"></path>
  </g>
</svg>
