<svg xmlns="http://www.w3.org/2000/svg" viewBox="0 0 519.508 215" fill="currentColor" fill-rule="nonzero" aria-hidden="true">
<path d="M155.758 187.375L90.4199 187.375L94.5336 191.064L159.873 191.064L163.988 194.755L229.327 194.755L221.097 187.375L168.297 187.375L155.758 187.375Z" fill="currentColor"/>
<path d="M138.346 171.76L73.008 171.76L77.1216 175.45L142.461 175.45L146.576 179.141L211.915 179.141L203.685 171.76L185.708 171.76L138.346 171.76Z" fill="currentColor"/>
<path d="M55.5952 156.146L59.7101 159.835L125.049 159.835L129.164 163.526L194.502 163.526L186.273 156.146L120.935 156.146L55.5952 156.146Z" fill="currentColor"/>
<path d="M38.1835 140.531L42.2984 144.221L107.638 144.221L111.753 147.912L177.091 147.912L168.861 140.531L103.522 140.531L38.1835 140.531Z" fill="currentColor"/>
<path d="M20.7715 124.917L24.8864 128.606L90.2245 128.606L94.3407 132.297L159.679 132.297L151.449 124.917L86.1096 124.917L20.7715 124.917Z" fill="currentColor"/>
<path d="M3.35961 109.302L7.47449 112.992L72.8138 112.992L76.9287 116.683L142.267 116.683L134.037 109.302L68.6977 109.302L3.35961 109.302Z" fill="currentColor"/>
<path d="M0.000616465 93.6873L0.000616465 97.377L65.3387 97.377L65.3387 101.068L130.678 101.068L130.678 93.6873L65.3387 93.6873L0.000616465 93.6873Z" fill="currentColor"/>
<path d="M0.000616465 78.0729L0.000616465 81.7626L65.3387 81.7626L65.3387 85.4535L130.678 85.4535L130.678 78.0729L65.3387 78.0729L0.000616465 78.0729Z" fill="currentColor"/>
<path d="M65.3392 62.4584L0.00111375 62.4584L0.00111375 66.1481L65.3392 66.1481L65.3392 69.839L130.679 69.839L130.679 62.4584L65.3392 62.4584Z" fill="currentColor"/>
<path d="M65.3394 46.8438L2.84217e-14 46.8438L2.84217e-14 50.5335L65.3394 50.5335L65.3394 54.2244L130.677 54.2244L130.677 46.8438L65.3394 46.8438Z" fill="currentColor"/>
<path d="M118.752 31.2292L74.6253 31.2292L9.28716 31.2292L5.59623 34.9189L70.9356 34.9189L67.2459 38.6098L132.584 38.6098L139.965 31.2292L118.752 31.2292Z" fill="currentColor"/>
<path d="M103.137 15.6146L90.2399 15.6146L24.9018 15.6146L21.2108 19.3043L86.5502 19.3043L82.8605 22.9952L148.199 22.9952L155.579 15.6146L103.137 15.6146Z" fill="currentColor"/>
<path d="M195.267 202.99L182.978 202.99L173.17 202.99L150.885 202.99L141.064 202.99L107.832 202.99L111.946 206.679L141.064 206.679L146.77 206.679L177.285 206.679L181.399 210.37L195.267 210.37L207.994 210.37L246.739 210.37L238.509 202.99L216.224 202.99L195.267 202.99Z" fill="currentColor"/>
<path d="M105.855 8.88178e-15L87.5222 8.88178e-15L82.8599 8.88178e-15L40.5165 8.88178e-15L36.8256 3.68968L82.8599 3.68968L91.2119 3.68968L102.165 3.68968L98.474 7.3806L163.813 7.3806L171.194 8.88178e-15L105.855 8.88178e-15Z" fill="currentColor"/>
<path d="M454.169 46.8438L389.393 46.8438L289.229 46.8438L260.793 46.8438L130.678 46.8438L130.678 58.7683L389.393 58.7683L389.393 54.2244L454.169 54.2244L454.169 50.5335L519.508 50.5335L519.508 46.8438L454.169 46.8438Z" fill="currentColor"/>
<path d="M351.211 187.375L298.974 187.375L285.872 187.375L221.096 187.375L234.394 199.299L285.677 199.299L290.745 194.755L355.52 194.755L359.634 191.064L424.974 191.064L429.089 187.375L363.751 187.375L351.211 187.375Z" fill="currentColor"/>
<path d="M333.799 171.76L316.386 171.76L268.46 171.76L203.684 171.76L216.982 183.685L303.089 183.685L308.156 179.141L372.932 179.141L377.047 175.45L442.386 175.45L446.501 171.76L381.162 171.76L333.799 171.76Z" fill="currentColor"/>
<path d="M333.798 156.146L316.387 156.146L251.049 156.146L186.273 156.146L199.569 168.07L320.501 168.07L325.568 163.526L390.344 163.526L394.459 159.835L459.798 159.835L463.913 156.146L398.574 156.146L333.798 156.146Z" fill="currentColor"/>
<path d="M351.21 140.531L298.976 140.531L233.637 140.531L168.861 140.531L182.158 152.456L337.913 152.456L342.98 147.912L407.756 147.912L411.871 144.221L477.21 144.221L481.325 140.531L415.986 140.531L351.21 140.531Z" fill="currentColor"/>
<path d="M368.622 124.917L281.563 124.917L216.224 124.917L151.45 124.917L164.746 136.841L355.325 136.841L360.392 132.297L425.168 132.297L429.283 128.606L494.622 128.606L498.737 124.917L433.398 124.917L368.622 124.917Z" fill="currentColor"/>
<path d="M386.034 109.302L264.152 109.302L198.813 109.302L134.037 109.302L147.335 121.226L372.737 121.226L377.804 116.683L442.58 116.683L446.695 112.992L512.034 112.992L516.149 109.302L450.81 109.302L386.034 109.302Z" fill="currentColor"/>
<path d="M389.393 93.6873L260.793 93.6873L195.454 93.6873L130.678 93.6873L130.678 105.612L389.393 105.612L389.393 101.068L454.169 101.068L454.169 97.377L519.508 97.377L519.508 93.6873L454.169 93.6873L389.393 93.6873Z" fill="currentColor"/>
<path d="M389.393 78.0729L260.793 78.0729L195.454 78.0729L130.678 78.0729L130.678 89.9973L389.393 89.9973L389.393 85.4535L454.169 85.4535L454.169 81.7626L519.508 81.7626L519.508 78.0729L454.169 78.0729L389.393 78.0729Z" fill="currentColor"/>
<path d="M389.393 62.4584L260.793 62.4584L195.454 62.4584L130.678 62.4584L130.678 74.3829L389.393 74.3829L389.393 69.839L454.169 69.839L454.169 66.1481L519.508 66.1481L519.508 62.4584L454.169 62.4584L389.393 62.4584Z" fill="currentColor"/>
<path d="M368.623 202.99L346.338 202.99L336.53 202.99L324.241 202.99L303.284 202.99L281.562 202.99L273.023 202.99L238.508 202.99L251.806 214.914L268.265 214.914L273.333 210.37L311.514 210.37L324.241 210.37L338.108 210.37L342.223 206.679L372.738 206.679L378.444 206.679L407.563 206.679L411.676 202.99L378.444 202.99L368.623 202.99Z" fill="currentColor"/>
<path d="M389.393 40.5153L387.486 38.6088L452.262 38.6088L448.572 34.9191L513.912 34.9191L510.221 31.2294L444.883 31.2294L400.756 31.2294L380.107 31.2294L270.642 31.2294L270.079 31.2294L266.389 34.9191L266.952 34.9191L260.036 41.8358L249.43 31.2294L139.965 31.2294L130.678 40.5153L130.678 43.1538L389.393 43.1538L389.393 40.5153Z" fill="currentColor"/>
<path d="M233.815 15.6146L155.578 15.6146L143.654 27.539L245.739 27.539L233.815 15.6146Z" fill="currentColor"/>
<path d="M376.417 27.5391L371.873 22.9953L436.649 22.9953L432.958 19.3043L498.297 19.3043L494.607 15.6147L429.268 15.6147L416.371 15.6147L363.929 15.6147L351.033 15.6147L285.693 15.6147L282.003 19.3043L282.566 19.3043L274.333 27.5391L376.417 27.5391Z" fill="currentColor"/>
<path d="M360.802 11.9245L356.258 7.38067L421.034 7.38067L417.343 3.68974L428.296 3.68974L436.648 3.68974L482.682 3.68974L478.992 6.14943e-05L436.648 6.14943e-05L431.986 6.14943e-05L413.653 6.14943e-05L348.878 6.14943e-05L348.314 6.14943e-05L301.871 6.14943e-05L301.308 6.14943e-05L297.617 3.68974L298.181 3.68974L289.946 11.9245L360.802 11.9245Z" fill="currentColor"/>
<path d="M218.2 7.61068e-05L171.193 7.61068e-05L159.269 11.9245L230.124 11.9245L218.2 7.61068e-05Z" fill="currentColor"/>
</svg>
