<svg xmlns="http://www.w3.org/2000/svg" viewBox="0 0 519.508 430.884" fill="currentColor" fill-rule="nonzero" role="img" aria-label="Community Assist">
<path d="M155.758 187.375L90.4199 187.375L94.5336 191.064L159.873 191.064L163.988 194.755L229.327 194.755L221.097 187.375L168.297 187.375L155.758 187.375Z" fill="currentColor"/>
<path d="M138.346 171.76L73.008 171.76L77.1216 175.45L142.461 175.45L146.576 179.141L211.915 179.141L203.685 171.76L185.708 171.76L138.346 171.76Z" fill="currentColor"/>
<path d="M55.5952 156.146L59.7101 159.835L125.049 159.835L129.164 163.526L194.502 163.526L186.273 156.146L120.935 156.146L55.5952 156.146Z" fill="currentColor"/>
<path d="M38.1835 140.531L42.2984 144.221L107.638 144.221L111.753 147.912L177.091 147.912L168.861 140.531L103.522 140.531L38.1835 140.531Z" fill="currentColor"/>
<path d="M20.7715 124.917L24.8864 128.606L90.2245 128.606L94.3407 132.297L159.679 132.297L151.449 124.917L86.1096 124.917L20.7715 124.917Z" fill="currentColor"/>
<path d="M3.35961 109.302L7.47449 112.992L72.8138 112.992L76.9287 116.683L142.267 116.683L134.037 109.302L68.6977 109.302L3.35961 109.302Z" fill="currentColor"/>
<path d="M0.000616465 93.6873L0.000616465 97.377L65.3387 97.377L65.3387 101.068L130.678 101.068L130.678 93.6873L65.3387 93.6873L0.000616465 93.6873Z" fill="currentColor"/>
<path d="M0.000616465 78.0729L0.000616465 81.7626L65.3387 81.7626L65.3387 85.4535L130.678 85.4535L130.678 78.0729L65.3387 78.0729L0.000616465 78.0729Z" fill="currentColor"/>
<path d="M65.3392 62.4584L0.00111375 62.4584L0.00111375 66.1481L65.3392 66.1481L65.3392 69.839L130.679 69.839L130.679 62.4584L65.3392 62.4584Z" fill="currentColor"/>
<path d="M65.3394 46.8438L2.84217e-14 46.8438L2.84217e-14 50.5335L65.3394 50.5335L65.3394 54.2244L130.677 54.2244L130.677 46.8438L65.3394 46.8438Z" fill="currentColor"/>
<path d="M118.752 31.2292L74.6253 31.2292L9.28716 31.2292L5.59623 34.9189L70.9356 34.9189L67.2459 38.6098L132.584 38.6098L139.965 31.2292L118.752 31.2292Z" fill="currentColor"/>
<path d="M103.137 15.6146L90.2399 15.6146L24.9018 15.6146L21.2108 19.3043L86.5502 19.3043L82.8605 22.9952L148.199 22.9952L155.579 15.6146L103.137 15.6146Z" fill="currentColor"/>
<path d="M195.267 202.99L182.978 202.99L173.17 202.99L150.885 202.99L141.064 202.99L107.832 202.99L111.946 206.679L141.064 206.679L146.77 206.679L177.285 206.679L181.399 210.37L195.267 210.37L207.994 210.37L246.739 210.37L238.509 202.99L216.224 202.99L195.267 202.99Z" fill="currentColor"/>
<path d="M105.855 8.88178e-15L87.5222 8.88178e-15L82.8599 8.88178e-15L40.5165 8.88178e-15L36.8256 3.68968L82.8599 3.68968L91.2119 3.68968L102.165 3.68968L98.474 7.3806L163.813 7.3806L171.194 8.88178e-15L105.855 8.88178e-15Z" fill="currentColor"/>
<path d="M454.169 46.8438L389.393 46.8438L289.229 46.8438L260.793 46.8438L130.678 46.8438L130.678 58.7683L389.393 58.7683L389.393 54.2244L454.169 54.2244L454.169 50.5335L519.508 50.5335L519.508 46.8438L454.169 46.8438Z" fill="currentColor"/>
<path d="M351.211 187.375L298.974 187.375L285.872 187.375L221.096 187.375L234.394 199.299L285.677 199.299L290.745 194.755L355.52 194.755L359.634 191.064L424.974 191.064L429.089 187.375L363.751 187.375L351.211 187.375Z" fill="currentColor"/>
<path d="M333.799 171.76L316.386 171.76L268.46 171.76L203.684 171.76L216.982 183.685L303.089 183.685L308.156 179.141L372.932 179.141L377.047 175.45L442.386 175.45L446.501 171.76L381.162 171.76L333.799 171.76Z" fill="currentColor"/>
<path d="M333.798 156.146L316.387 156.146L251.049 156.146L186.273 156.146L199.569 168.07L320.501 168.07L325.568 163.526L390.344 163.526L394.459 159.835L459.798 159.835L463.913 156.146L398.574 156.146L333.798 156.146Z" fill="currentColor"/>
<path d="M351.21 140.531L298.976 140.531L233.637 140.531L168.861 140.531L182.158 152.456L337.913 152.456L342.98 147.912L407.756 147.912L411.871 144.221L477.21 144.221L481.325 140.531L415.986 140.531L351.21 140.531Z" fill="currentColor"/>
<path d="M368.622 124.917L281.563 124.917L216.224 124.917L151.45 124.917L164.746 136.841L355.325 136.841L360.392 132.297L425.168 132.297L429.283 128.606L494.622 128.606L498.737 124.917L433.398 124.917L368.622 124.917Z" fill="currentColor"/>
<path d="M386.034 109.302L264.152 109.302L198.813 109.302L134.037 109.302L147.335 121.226L372.737 121.226L377.804 116.683L442.58 116.683L446.695 112.992L512.034 112.992L516.149 109.302L450.81 109.302L386.034 109.302Z" fill="currentColor"/>
<path d="M389.393 93.6873L260.793 93.6873L195.454 93.6873L130.678 93.6873L130.678 105.612L389.393 105.612L389.393 101.068L454.169 101.068L454.169 97.377L519.508 97.377L519.508 93.6873L454.169 93.6873L389.393 93.6873Z" fill="currentColor"/>
<path d="M389.393 78.0729L260.793 78.0729L195.454 78.0729L130.678 78.0729L130.678 89.9973L389.393 89.9973L389.393 85.4535L454.169 85.4535L454.169 81.7626L519.508 81.7626L519.508 78.0729L454.169 78.0729L389.393 78.0729Z" fill="currentColor"/>
<path d="M389.393 62.4584L260.793 62.4584L195.454 62.4584L130.678 62.4584L130.678 74.3829L389.393 74.3829L389.393 69.839L454.169 69.839L454.169 66.1481L519.508 66.1481L519.508 62.4584L454.169 62.4584L389.393 62.4584Z" fill="currentColor"/>
<path d="M368.623 202.99L346.338 202.99L336.53 202.99L324.241 202.99L303.284 202.99L281.562 202.99L273.023 202.99L238.508 202.99L251.806 214.914L268.265 214.914L273.333 210.37L311.514 210.37L324.241 210.37L338.108 210.37L342.223 206.679L372.738 206.679L378.444 206.679L407.563 206.679L411.676 202.99L378.444 202.99L368.623 202.99Z" fill="currentColor"/>
<path d="M389.393 40.5153L387.486 38.6088L452.262 38.6088L448.572 34.9191L513.912 34.9191L510.221 31.2294L444.883 31.2294L400.756 31.2294L380.107 31.2294L270.642 31.2294L270.079 31.2294L266.389 34.9191L266.952 34.9191L260.036 41.8358L249.43 31.2294L139.965 31.2294L130.678 40.5153L130.678 43.1538L389.393 43.1538L389.393 40.5153Z" fill="currentColor"/>
<path d="M233.815 15.6146L155.578 15.6146L143.654 27.539L245.739 27.539L233.815 15.6146Z" fill="currentColor"/>
<path d="M376.417 27.5391L371.873 22.9953L436.649 22.9953L432.958 19.3043L498.297 19.3043L494.607 15.6147L429.268 15.6147L416.371 15.6147L363.929 15.6147L351.033 15.6147L285.693 15.6147L282.003 19.3043L282.566 19.3043L274.333 27.5391L376.417 27.5391Z" fill="currentColor"/>
<path d="M360.802 11.9245L356.258 7.38067L421.034 7.38067L417.343 3.68974L428.296 3.68974L436.648 3.68974L482.682 3.68974L478.992 6.14943e-05L436.648 6.14943e-05L431.986 6.14943e-05L413.653 6.14943e-05L348.878 6.14943e-05L348.314 6.14943e-05L301.871 6.14943e-05L301.308 6.14943e-05L297.617 3.68974L298.181 3.68974L289.946 11.9245L360.802 11.9245Z" fill="currentColor"/>
<path d="M218.2 7.61068e-05L171.193 7.61068e-05L159.269 11.9245L230.124 11.9245L218.2 7.61068e-05Z" fill="currentColor"/>
<path d="M30.0578 315.199C28.3583 314.263 26.928 312.911 25.7671 311.143C24.605 309.376 23.7134 307.209 23.09 304.644C22.4653 302.078 22.1535 299.165 22.1535 295.907C22.1535 289.182 23.4017 283.912 25.8981 280.098C28.3932 276.32 31.8597 274.429 36.2975 274.429C39.6954 274.429 43.006 276.042 46.2293 279.266L46.2293 256.333C42.5895 255.016 39.0183 254.358 35.5169 254.358C24.7359 254.358 16.1209 258.171 9.67297 265.797C3.22382 273.459 0.000496978 283.617 0.000496978 296.271C0.000496978 309.791 3.43206 320.243 10.2964 327.629C16.4326 334.215 23.9903 337.509 32.9694 337.509C36.7826 337.509 41.0982 336.537 45.9176 334.597L47.1658 311.404C43.3863 314.87 39.6256 316.603 35.881 316.603C33.6976 316.603 31.7562 316.136 30.0578 315.199" fill="currentColor"/>
<path d="M82.5095 311.715C81.1229 315.391 79.1465 317.228 76.5803 317.228C74.084 317.228 72.135 315.364 70.7297 311.638C69.3269 307.911 68.6249 302.667 68.6249 295.907C68.6249 289.042 69.3693 283.841 70.8606 280.306C72.3856 276.493 74.4306 274.586 76.9968 274.586C82.1267 274.586 84.6929 281.849 84.6929 296.375C84.6929 302.927 83.9647 308.04 82.5095 311.715M98.994 265.693C93.5149 258.136 86.1493 254.357 76.8921 254.357C69.3344 254.357 62.8005 257.148 57.2878 262.729C49.8698 270.253 46.1601 281.12 46.1601 295.334C46.1601 310.174 49.7126 321.302 56.8202 328.72C62.4713 334.579 69.2496 337.509 77.1539 337.509C86.062 337.509 93.2905 333.695 98.8381 326.069C104.419 318.406 107.211 308.457 107.211 296.218C107.211 283.426 104.472 273.251 98.994 265.693" fill="currentColor"/>
<path d="M157.061 255.813L151.549 284.883C150.751 288.904 150.128 293.463 149.678 298.559C149.433 295.509 149.164 292.682 148.871 290.082C148.575 287.483 148.238 285.073 147.856 282.854L143.333 255.813L116.343 255.813L106.984 336.104L130.072 336.104L131.996 299.703L132.516 284.883C132.758 287.241 132.914 288.801 132.984 289.562C133.572 294.625 134.041 298.195 134.388 300.275L140.213 336.104L157.894 336.104L164.706 300.326C165.156 297.936 165.537 295.464 165.849 292.917C166.161 290.368 166.438 287.69 166.682 284.883L167.358 299.496L168.97 336.104L191.643 336.104L183.841 255.813L157.061 255.813Z" fill="currentColor"/>
<path d="M241.858 255.813L236.347 284.883C235.549 288.904 234.925 293.463 234.475 298.559C234.231 295.509 233.963 292.682 233.668 290.082C233.373 287.483 233.035 285.073 232.653 282.854L228.131 255.813L201.141 255.813L191.781 336.104L214.87 336.104L216.794 299.703L217.314 284.883C217.555 287.241 217.711 288.801 217.781 289.562C218.37 294.625 218.839 298.195 219.185 300.275L225.011 336.104L242.691 336.104L249.503 300.326C249.953 297.936 250.335 295.464 250.647 292.917C250.958 290.368 251.235 287.69 251.48 284.883L252.155 299.496L253.768 336.104L276.441 336.104L268.639 255.813L241.858 255.813Z" fill="currentColor"/>
<path d="M311.367 307.659C311.367 311.265 310.968 313.778 310.17 315.199C309.371 316.551 307.934 317.228 305.854 317.228C303.843 317.228 302.412 316.5 301.563 315.044C300.713 313.587 300.29 311.109 300.29 307.607L300.29 255.813L278.605 255.813L278.605 309.531C278.605 319.827 281.794 327.316 288.174 331.996C293.2 335.672 299.422 337.508 306.841 337.508C313.394 337.508 318.959 335.845 323.534 332.516C326.932 330.019 329.36 327.23 330.815 324.144C332.305 321.198 333.051 317.349 333.051 312.598L333.051 255.813L311.367 255.813L311.367 307.659Z" fill="currentColor"/>
<path d="M372.658 273.858C372.658 277.221 372.867 281.381 373.282 286.337C373.698 291.296 374.304 297.259 375.102 304.227L372.867 297.154C371.965 294.346 371.141 291.867 370.397 289.719C369.65 287.569 368.983 285.663 368.394 283.998L357.526 255.814L336.829 255.814L336.829 336.105L357.526 336.105L357.526 315.615C357.526 312.461 357.422 308.787 357.214 304.591C357.006 300.396 356.675 295.474 356.226 289.822C356.918 292.319 357.724 294.945 358.644 297.701C359.562 300.456 360.594 303.413 361.738 306.566L372.658 336.105L393.355 336.105L393.355 255.814L372.658 255.814L372.658 273.858Z" fill="currentColor"/>
<path d="M497.043 255.813L493.091 267.826C492.64 269.143 492.12 270.867 491.531 272.999C490.94 275.132 490.248 277.672 489.45 280.618C488.964 278.642 488.419 276.579 487.813 274.43C487.205 272.28 486.521 270.044 485.759 267.721L481.857 255.813L463.052 255.813L459.238 255.813L418.819 255.813L416.978 255.813L397.132 255.813L397.132 336.104L418.819 336.104L418.819 275.053L428.939 275.053L428.939 336.104L450.624 336.104L450.624 275.053L463.052 275.053L463.052 264.677L479.154 302.095L479.154 336.104L500.838 336.104L500.838 302.095L519.507 255.813L497.043 255.813Z" fill="currentColor"/>
<path d="M166.279 402.075L164.876 392.714C164.841 392.681 164.772 392.212 164.667 391.31C164.597 390.549 164.233 387.532 163.576 382.261C163.506 381.673 163.419 380.867 163.315 379.845C163.212 378.821 163.072 377.529 162.9 375.969L162.223 368.377C162.153 369.105 162.058 369.92 161.937 370.822C161.816 371.724 161.685 372.711 161.547 373.786C161.305 375.936 161.132 377.426 161.027 378.257C160.924 379.089 160.854 379.593 160.82 379.765L159.311 389.491L157.127 402.075L166.279 402.075ZM192.853 429.48L170.439 429.48L168.828 419.288L154.215 419.288L152.447 429.48L130.035 429.48L149.327 349.189L175.848 349.189L192.853 429.48Z" fill="currentColor"/>
<path d="M194.291 427.503L194.291 402.283C198.554 408.107 203.166 411.019 208.123 411.019C209.995 411.019 211.521 410.524 212.7 409.538C213.878 408.549 214.468 407.309 214.468 405.819C214.468 403.67 213.185 401.572 210.62 399.527L207.083 396.77C204.726 395.002 202.715 393.243 201.051 391.492C199.387 389.743 198.036 387.938 196.995 386.084C195.955 384.23 195.193 382.313 194.706 380.337C194.22 378.362 193.979 376.281 193.979 374.097C193.979 370.353 194.845 366.436 196.578 362.345C197.445 360.438 198.451 358.696 199.596 357.118C200.739 355.542 202.056 354.146 203.547 352.933C207.637 349.467 212.577 347.733 218.367 347.733C223.533 347.733 228.733 349.102 233.969 351.841L233.969 376.385C232.2 373.647 230.189 371.489 227.936 369.911C225.683 368.334 223.463 367.546 221.28 367.546C219.616 367.546 218.246 368.031 217.171 369.001C216.061 369.937 215.508 371.065 215.508 372.381C215.508 374.531 216.982 376.663 219.928 378.777L223.361 381.326C227.936 384.619 231.213 388.001 233.189 391.466C235.199 394.934 236.204 398.99 236.204 403.635C236.204 411.539 233.794 418.058 228.976 423.188C224.158 428.319 218.055 430.884 210.672 430.884C205.575 430.884 200.114 429.757 194.291 427.503" fill="currentColor"/>
<path d="M235.51 427.503L235.51 402.283C239.773 408.107 244.384 411.019 249.342 411.019C251.214 411.019 252.739 410.524 253.918 409.538C255.097 408.549 255.686 407.309 255.686 405.819C255.686 403.67 254.403 401.572 251.838 399.527L248.302 396.77C245.944 395.002 243.934 393.243 242.269 391.492C240.606 389.743 239.254 387.938 238.213 386.084C237.173 384.23 236.411 382.313 235.925 380.337C235.439 378.362 235.198 376.281 235.198 374.097C235.198 370.353 236.063 366.436 237.797 362.345C238.663 360.438 239.669 358.696 240.814 357.118C241.958 355.542 243.274 354.146 244.766 352.933C248.856 349.467 253.796 347.733 259.585 347.733C264.752 347.733 269.951 349.102 275.187 351.841L275.187 376.385C273.419 373.647 271.408 371.489 269.154 369.911C266.901 368.334 264.682 367.546 262.498 367.546C260.835 367.546 259.465 368.031 258.39 369.001C257.28 369.937 256.726 371.065 256.726 372.381C256.726 374.531 258.2 376.663 261.147 378.777L264.578 381.326C269.154 384.619 272.431 388.001 274.408 391.466C276.418 394.934 277.423 398.99 277.423 403.635C277.423 411.539 275.013 418.058 270.194 423.188C265.376 428.319 259.274 430.884 251.891 430.884C246.793 430.884 241.333 429.757 235.51 427.503" fill="currentColor"/>
<path d="M300.129 429.48L278.444 429.48L278.444 349.188L300.129 349.188L300.129 429.48Z" fill="currentColor"/>
<path d="M302.192 427.503L302.192 402.283C306.455 408.107 311.066 411.019 316.024 411.019C317.895 411.019 319.42 410.524 320.6 409.538C321.778 408.549 322.368 407.309 322.368 405.819C322.368 403.67 321.085 401.572 318.52 399.527L314.984 396.77C312.626 395.002 310.616 393.243 308.951 391.492C307.288 389.743 305.936 387.938 304.895 386.084C303.855 384.23 303.093 382.313 302.607 380.337C302.12 378.362 301.88 376.281 301.88 374.097C301.88 370.353 302.745 366.436 304.478 362.345C305.345 360.438 306.351 358.696 307.496 357.118C308.639 355.542 309.956 354.146 311.448 352.933C315.537 349.467 320.478 347.733 326.267 347.733C331.433 347.733 336.633 349.102 341.869 351.841L341.869 376.385C340.101 373.647 338.09 371.489 335.836 369.911C333.583 368.334 331.364 367.546 329.18 367.546C327.517 367.546 326.146 368.031 325.072 369.001C323.962 369.937 323.408 371.065 323.408 372.381C323.408 374.531 324.882 376.663 327.828 378.777L331.261 381.326C335.836 384.619 339.113 388.001 341.09 391.466C343.1 394.934 344.105 398.99 344.105 403.635C344.105 411.539 341.694 418.058 336.876 423.188C332.058 428.319 325.956 430.884 318.572 430.884C313.475 430.884 308.015 429.757 302.192 427.503" fill="currentColor"/>
<path d="M377.046 429.48L355.361 429.48L355.361 368.429L343.4 368.429L343.4 349.189L389.474 349.189L389.474 368.429L377.046 368.429L377.046 429.48Z" fill="currentColor"/>
</svg>
